<mxfile host="app.diagrams.net" modified="2023-10-05T09:53:49.270Z" agent="Mozilla/5.0 (Windows NT 10.0; Win64; x64) AppleWebKit/537.36 (KHTML, like Gecko) Chrome/117.0.0.0 Safari/537.36" version="22.0.2" etag="rZ_gs52HybxIBStaqfiy" type="github">
  <diagram name="Page-1" id="J7pNc2jzAyI4eaKNCd6m">
    <mxGraphModel>
      <root>
        <mxCell id="0" />
        <mxCell id="1" parent="0" />
      </root>
    </mxGraphModel>
  </diagram>
</mxfile>
